#!OML:ASF F:\VICON\USERDATA\INSTALL\rory3\rory3.ASF
:FULLY-SPECIFIED
:DEGREES
90
root 0.746783407351999 17.782236366866748 39.92653707112795 -3.219856239608824 -5.8166965306115745 -2.083381201369965
lfemur -17.43207837174333 -2.413368473392038 -19.5728410676757
ltibia 29.524102080156634
lfoot -5.051703761065528 -0.5965820936028131
ltoes 3.3227492845742135
rfemur 0.24292797845204106 2.9428327710001523 25.320383822124406
rtibia 58.907107886707024
rfoot 12.235064096601487 0.7539397901799774
rtoes 7.778918839299127
lowerback 9.437559794804088 3.0014360252198324 2.8543835349390507
upperback 0.4024810155895752 4.294320630163824 0.634539707648168
thorax -4.768612692183583 2.0735622016170954 -1.0695184839147842
lowerneck -16.223076772571165 -3.0023195052971876 -1.9316525257379138
upperneck 20.591599363185853 -3.9809419424364414 1.6385697884113855
head 9.238277869277743 -1.8530333053289534 0.3655329809267332
lclavicle -9.227001779181191e-16 1.8556685995564632e-15
lhumerus -37.64070624731734 10.546158711196334 79.66748419428637
lradius 17.864334112205963
lwrist 0.9891490329767976
lhand -26.581102047374916 23.73384490054953
lfingers 7.12502
lthumb -0.015408389351358576 53.69393997963529
rclavicle -9.227001779181191e-16 1.8556685995564632e-15
rhumerus -25.689058603719538 -14.571527224583297 -81.15505261842743
rradius 28.736770635296526
rwrist 4.358395056314691
rhand -17.680559752457693 23.925754624929475
rfingers 7.12502
rthumb 8.578571174390532 -5.884444532438929
91
root 0.7953225296769524 17.834083627040695 40.33051436610054 -3.5692096436766545 -5.856262399975777 -0.9792575367905187
lfemur -14.553855046307262 -2.5790271771252025 -21.418181496161765
ltibia 29.342642833667167
lfoot -7.00860815511725 0.5920904080144
ltoes 3.1251404754224406
rfemur -5.40768242528755 1.917713772802987 23.509129638534358
rtibia 65.33765725771586
rfoot 11.703072621590849 -2.479190526015136
rtoes 10.613933098545994
lowerback 9.713690943878921 2.7729238735154524 1.7180682092411823
upperback 0.5211740154939795 3.87007416853884 0.45782775033277945
thorax -4.845459970300433 1.8841079428656116 -0.6326659031706318
lowerneck -16.28640691746763 -2.888569158989317 -2.0040268457523234
upperneck 20.534455561024597 -3.795605782951096 1.526276785142998
head 9.22213805981313 -1.7808354182903632 0.3702979397628257
lclavicle -1.0658837882459855e-15 1.7237469946861677e-15
lhumerus -36.579064690490725 9.086448670106723 80.46161004381737
lradius 18.808333082695874
lwrist 2.4839885350286828
lhand -27.79522125703331 22.653674200081074
lfingers 7.12502
lthumb -1.1880157726339409 52.60526138013626
rclavicle -1.0658837882459855e-15 1.7237469946861677e-15
rhumerus -26.112661468985863 -15.170596521380165 -81.18868818867703
rradius 28.075595602076763
rwrist 5.36569529161291
rhand -17.453858723862776 23.49196706579683
rfingers 7.12502
rthumb 8.797360625779685 -6.308781625886206
92
root 0.8177803463293527 17.869255612000558 40.65965690134015 -3.838417048886689 -5.6171791112877445 -0.22611262735270565
lfemur -11.858994075396131 -2.868815625862637 -22.935209736026167
ltibia 28.65234507611999
lfoot -8.872988616365568 1.4941763422147127
ltoes 2.5718208145112196
rfemur -11.05279954220199 0.8669922701819597 22.301382997653654
rtibia 69.3881887829127
rfoot 7.233381768615104 -5.1675692338590675
rtoes 11.091050301791292
lowerback 9.887893936652214 2.3723822910955006 0.7835971845671459
upperback 0.6559618869249462 3.2370419666817294 0.4000475785824744
thorax -4.865044510416269 1.5903933448611411 -0.18940705610113995
lowerneck -16.276248655586535 -2.777703394744123 -2.114639313882261
upperneck 20.521771637039542 -3.611278926584827 1.3989138334234132
head 9.209166909342127 -1.7105484804399722 0.37703636234011717
lclavicle -1.3749283156403024e-15 1.439373329886853e-15
lhumerus -35.13927577558164 7.527914224422385 81.13206538778878
lradius 19.51899320794729
lwrist 3.247242716303818
lhand -28.700541012589415 21.304387193569596
lfingers 7.12502
lthumb -2.0623988532147113 51.25238740443132
rclavicle -1.3749283156403024e-15 1.439373329886853e-15
rhumerus -26.51416034273901 -15.945440518500087 -81.18399933234596
rradius 27.40170317519442
rwrist 6.172431569550649
rhand -17.257937448522753 22.95794282216532
rfingers 7.12502
rthumb 8.98643408597229 -6.833240814421705
93
root 0.8339493160658348 17.88539465552774 41.58792885649738 -3.988459622067737 -4.978947244935844 0.3809318124681016
lfemur -8.925437181066426 -3.1973796813537194 -24.019175911740177
ltibia 28.272042557469256
lfoot -10.317362972479476 2.126669313597687
ltoes 2.2666216076218366
rfemur -16.061357325078447 0.03451064143283844 21.724152796128557
rtibia 71.18777839304342
rfoot 1.6170199460410526 -6.147226089041242
rtoes 9.891757009076642
lowerback 10.026364668431206 1.8733905906436963 0.11991062785710827
upperback 0.7678337434330027 2.500601236949291 0.46522623656875695
thorax -4.860702005001992 1.2416149902166134 0.33587686781365556
lowerneck -16.203619027595646 -2.6923803276800737 -2.2811761968315643
upperneck 20.586629349296206 -3.4630115556804135 1.340290209243621
head 9.21864820815388 -1.6546978140902515 0.4110691761255679
lclavicle -1.3024340002184504e-15 1.506179893271956e-15
lhumerus -33.194536799524386 5.8834764676652425 81.67709608590702
lradius 20.257566292701338
lwrist 3.560407314589588
lhand -28.926564900734384 20.578643288287655
lfingers 7.12502
lthumb -2.2807241460630596 50.52957674635721
rclavicle -1.3024340002184504e-15 1.506179893271956e-15
rhumerus -26.960394305042115 -16.581949787138104 -81.02148721814662
rradius 26.983094467763237
rwrist 6.553481170862155
rhand -17.063955514440256 22.592391115958375
rfingers 7.12502
rthumb 9.173620103676251 -7.190045417881958
94
root 0.8356601187748722 17.874572435401536 42.0125049210684 -4.031232146256513 -4.231613980882445 0.786322999982541
lfemur -6.59420601819262 -3.592930739694904 -25.093920314280343
ltibia 27.38513786398969
lfoot -11.920596360906021 2.4599134716340085
ltoes 2.067110353407784
rfemur -20.805459305663582 -0.6786720262399673 21.298995877430038
rtibia 69.88050384566932
rfoot -3.5947103865989725 -6.11150022035228
rtoes 7.541610712744287
lowerback 10.142396173079147 1.3021954203470245 -0.5844808836599307
upperback 0.8246030200082795 1.6656815356889725 0.5468436298548283
thorax -4.880996012941978 0.8448975721100136 0.821140256651072
lowerneck -16.18556167479798 -2.6638001387350174 -2.556804689879563
upperneck 20.634547361183028 -3.3957486391819685 1.3687144798271982
head 9.229211948260893 -1.6307646780034601 0.4717104479406079
lclavicle -1.6230434631332417e-15 1.2102089253746344e-15
lhumerus -31.23388020748881 3.8435199886124467 82.09611339200501
lradius 21.016317042726126
lwrist 3.811675006226211
lhand -28.753706080255707 20.441604096833952
lfingers 7.12502
lthumb -2.1137977521530336 50.39980329924147
rclavicle -1.6230434631332417e-15 1.2102089253746342e-15
rhumerus -27.574722965249958 -16.920758021296326 -80.95618276513186
rradius 26.81717438032697
rwrist 6.167044705896497
rhand -16.958486841265838 22.33641677792086
rfingers 7.12502
rthumb 9.275376745250188 -7.440013674645616
95
root 0.8379544649133905 17.85538104108266 43.08957570768138 -3.871979874201326 -3.3812658814967254 1.3213877464599961
lfemur -3.950955946079109 -3.7890075945835133 -25.91360175093033
ltibia 26.71289348124533
lfoot -13.188767899072662 2.9468083345758886
ltoes 2.2263893687269882
rfemur -24.379954954058014 -1.068430125143112 21.08805654447012
rtibia 66.39687401458683
rfoot -6.852472527566269 -6.052087446012776
rtoes 5.238095207156727
lowerback 10.251292198395396 0.8163258506813534 -1.2214369132684972
upperback 0.8638402497654205 0.947918987499725 0.6512885853994679
thorax -4.883424210347919 0.5041201883845127 1.3950055393559189
lowerneck -16.214162335631073 -2.6745287349767395 -2.8788188137510824
upperneck 20.633702260057227 -3.38394349480016 1.527236977295262
head 9.235629376085075 -1.6278157415303287 0.5718519424499827
lclavicle -1.4233258256331427e-15 1.3927583192838374e-15
lhumerus -29.019677789360333 1.8036939885245806 82.4696610493204
lradius 22.115575907427846
lwrist 4.434701861170998
lhand -28.37181354566055 20.84114971972276
lfingers 7.12502
lthumb -1.7449734144842337 50.80728067992972
rclavicle -1.4233258256331427e-15 1.3927583192838374e-15
rhumerus -28.07835479399272 -16.634068088679832 -80.8870534773017
rradius 26.952051859759546
rwrist 5.564547521348891
rhand -16.85484483544834 22.229997131391052
rfingers 7.12502
rthumb 9.375366821597229 -7.542379474668484
96
root 0.809492435201282 17.828216825599316 43.26646990020643 -3.5775097120314268 -2.7655374945380564 1.6848355037500498
lfemur -1.9504426032031192 -3.8579693267589352 -26.900800804355743
ltibia 24.6216160539581
lfoot -14.568251369081214 3.0549267751633975
ltoes 1.9923346524180334
rfemur -27.54313395225047 -1.048186544944567 20.447764674185148
rtibia 59.28603264861757
rfoot -8.769100708760568 -7.375163034721844
rtoes 3.0739406434708676
lowerback 10.235110255528378 0.3450220647762187 -2.08476689108147
upperback 0.8677622953247215 0.2310117239442494 0.6909107475066744
thorax -4.869041812566131 0.1666405962600776 1.846517893117603
lowerneck -16.336079019860087 -2.7163955414838163 -3.198907170504077
upperneck 20.527962576371607 -3.4259253580925115 1.7015669048065565
head 9.213367976971083 -1.6435213040852457 0.6637117123354055
lclavicle -1.986926116408155e-15 8.724837819121506e-16
lhumerus -27.073075523009134 -0.4196736232374707 82.6459707336759
lradius 23.264516290669544
lwrist 5.2323314952521995
lhand -28.13422705165512 21.15935984465554
lfingers 7.12502
lthumb -1.5155040972268736 51.131571931593456
rclavicle -1.986926116408155e-15 8.724837819121507e-16
rhumerus -28.64605784077236 -16.3584177407625 -81.01851891587961
rradius 26.96678384242577
rwrist 4.866611780697525
rhand -16.801814396946 22.02292135354858
rfingers 7.12502
rthumb 9.426521425534984 -7.744676372603565
97
root 0.7787351666747198 17.81281008808547 44.760650188385036 -3.07219935163566 -2.0459785787020173 2.269935833087079
lfemur 1.1977523302039277 -3.5544158655874676 -27.40694573250347
ltibia 22.389706663373154
lfoot -15.112282493273927 3.2084620694581485
ltoes 1.6586696956082885
rfemur -28.934425595488264 -0.107692619329538 19.72709305811396
rtibia 50.407834751968196
rfoot -9.068874584533937 -9.754544102189996
rtoes 1.7631371703941991
lowerback 10.113923470562522 0.011648296372145817 -2.768608135015339
upperback 0.8593852833227672 -0.2839959603180051 0.7528186049774022
thorax -4.784673245850781 -0.07579160583655309 2.4034885827660886
lowerneck -16.423965750440335 -2.73920414360151 -3.3927548617165426
upperneck 20.425048022191746 -3.4501988246963555 1.9110741414277732
head 9.193145083244506 -1.6491641218851614 0.7556189411525025
lclavicle -1.664008946132415e-15 1.1695298844129555e-15
lhumerus -24.790630799422857 -2.1140886261453344 82.68417294851227
lradius 24.754051416598955
lwrist 6.292434656042674
lhand -27.86920860660019 21.763115916744944
lfingers 7.12502
lthumb -1.2595590436071833 51.73805233184514
rclavicle -1.664008946132415e-15 1.1695298844129555e-15
rhumerus -28.990582317598836 -16.019387307575805 -80.9350691774383
rradius 26.913957336238344
rwrist 4.836313075849006
rhand -16.66908412401449 22.174699646491348
rfingers 7.12502
rthumb 9.554596502621916 -7.587525410247489
